<?xml version="1.0" encoding="UTF-8" standalone="no"?><!DOCTYPE svg PUBLIC "-//W3C//DTD SVG 1.1//EN" "http://www.w3.org/Graphics/SVG/1.1/DTD/svg11.dtd"><svg width="100%" height="100%" viewBox="0 0 2134 2134" version="1.1" xmlns="http://www.w3.org/2000/svg" xmlns:xlink="http://www.w3.org/1999/xlink" xml:space="preserve" xmlns:serif="http://www.serif.com/" style="fill-rule:evenodd;clip-rule:evenodd;stroke-linejoin:round;stroke-miterlimit:2;"><circle cx="1066.67" cy="1066.67" r="1056.25" style="fill:#fff;"/><path d="M870.171,406.126l-469.351,273.288c-3.191,1.858 -5.154,5.272 -5.154,8.964l-0,544.379c-0,137.65 73.708,264.772 193.177,333.152l469.174,268.539c3.192,1.826 7.11,1.826 10.301,0.01l470.035,-268.591c119.6,-68.349 193.416,-195.543 193.416,-333.292l0,-550.161l-475.526,-276.426c-119.352,-69.381 -266.769,-69.329 -386.072,0.138Z" style="fill:#7a1cb5;fill-rule:nonzero;"/><path d="M1204.08,725.949c-86.963,-50.552 -194.375,-50.514 -281.302,0.1l-171.399,99.801l312.02,179.62l312.533,-179.62l-171.852,-99.901Zm224.462,191.225l-312.468,179.58l0,360.386l171.538,-98.02c87.147,-49.802 140.93,-142.476 140.93,-242.846l-0,-199.1Zm-417.86,539.893l0,-360.338l-311.778,-179.48l0,199.182c0,100.299 53.705,192.919 140.753,242.741l171.025,97.895Zm-140.935,-822.095c119.682,-69.687 267.567,-69.739 387.299,-0.138l276.882,160.956l0,320.484c0,138.19 -74.044,265.784 -194.028,334.351l-276.543,158.017l-276.053,-157.997c-119.849,-68.597 -193.791,-196.121 -193.791,-334.214l-0,-320.616l276.234,-160.843Z" style="fill:#fff;"/></svg>